HIERARCHY
ROOT Hips
{
 OFFSET 0.000000 0.000000 0.000000
 CHANNELS 6 Xposition Yposition Zposition Yrotation Xrotation Zrotation
 JOINT Chest
 {
  OFFSET 0.000000 10.354800 0.006500
  CHANNELS 3 Yrotation Xrotation Zrotation
  JOINT Chest2
  {
   OFFSET 0.000000 10.435800 -0.013200
   CHANNELS 3 Yrotation Xrotation Zrotation
   JOINT Chest3
   {
    OFFSET 0.000000 10.393700 0.000000
    CHANNELS 3 Yrotation Xrotation Zrotation
    JOINT Chest4
    {
     OFFSET 0.000000 10.383100 0.000000
     CHANNELS 3 Yrotation Xrotation Zrotation
     JOINT Neck
     {
      OFFSET 0.000000 15.694000 0.000000
      CHANNELS 3 Yrotation Xrotation Zrotation
      JOINT Head
      {
       OFFSET 0.000000 9.711000 -0.028000
       CHANNELS 3 Yrotation Xrotation Zrotation
       End Site
       {
        OFFSET 0.000000 18.578700 -0.014800
       }
      }
     }
     JOINT RightCollar
     {
      OFFSET -3.157200 10.367500 0.000000
      CHANNELS 3 Yrotation Xrotation Zrotation
      JOINT RightShoulder
      {
       OFFSET -14.482500 0.000000 0.000000
       CHANNELS 3 Yrotation Xrotation Zrotation
       JOINT RightElbow
       {
        OFFSET 0.000000 -31.707800 0.000000
        CHANNELS 3 Yrotation Xrotation Zrotation
        JOINT RightWrist
        {
         OFFSET 0.000000 -25.659300 0.000000
         CHANNELS 3 Yrotation Xrotation Zrotation
         End Site
         {
          OFFSET 0.000000 -18.994300 0.000000
         }
        }
       }
      }
     }
     JOINT LeftCollar
     {
      OFFSET 3.157200 10.367500 0.000000
      CHANNELS 3 Yrotation Xrotation Zrotation
      JOINT LeftShoulder
      {
       OFFSET 14.482500 0.000000 0.000000
       CHANNELS 3 Yrotation Xrotation Zrotation
       JOINT LeftElbow
       {
        OFFSET 0.000000 -31.707800 0.000000
        CHANNELS 3 Yrotation Xrotation Zrotation
        JOINT LeftWrist
        {
         OFFSET 0.000000 -25.659300 0.000000
         CHANNELS 3 Yrotation Xrotation Zrotation
         End Site
         {
          OFFSET 0.000000 -18.994300 0.000000
         }
        }
       }
      }
     }
    }
   }
  }
 }
 JOINT RightHip
 {
  OFFSET -8.365600 -0.032100 -0.003200
  CHANNELS 3 Yrotation Xrotation Zrotation
  JOINT RightKnee
  {
   OFFSET 0.000000 -43.980000 0.003100
   CHANNELS 3 Yrotation Xrotation Zrotation
   JOINT RightAnkle
   {
    OFFSET 0.000000 -42.882800 0.005200
    CHANNELS 3 Yrotation Xrotation Zrotation
    JOINT RightToe
    {
     OFFSET 0.000000 -4.915500 10.826300
     CHANNELS 3 Yrotation Xrotation Zrotation
     End Site
     {
      OFFSET 0.000000 -1.517500 6.175900
     }
    }
   }
  }
 }
 JOINT LeftHip
 {
  OFFSET 8.365600 -0.032100 -0.003200
  CHANNELS 3 Yrotation Xrotation Zrotation
  JOINT LeftKnee
  {
   OFFSET 0.000000 -43.980000 0.003100
   CHANNELS 3 Yrotation Xrotation Zrotation
   JOINT LeftAnkle
   {
    OFFSET 0.000000 -42.882800 0.005200
    CHANNELS 3 Yrotation Xrotation Zrotation
    JOINT LeftToe
    {
     OFFSET 0.000000 -4.915500 10.826300
     CHANNELS 3 Yrotation Xrotation Zrotation
     End Site
     {
      OFFSET 0.000000 -1.517500 6.175900
     }
    }
   }
  }
 }
}
MOTION
Frames: 13
Frame Time: 0.008333
-6.131216 126.863940 35.041177 174.495120 -26.228625 -3.987405 -0.979662 14.955476 2.973586 -0.101933 1.375319 0.286484 -0.216091 2.366190 0.490204 -0.863364 13.281192 2.674884 -2.178041 21.241708 -2.170787 -1.820394 -3.186766 -1.852663 4.651588 2.728423 -10.157416 -10.661828 -30.462935 -32.518452 -114.833042 -61.932713 110.414575 -27.223194 -22.972621 -23.281021 -0.513590 3.278496 5.131701 27.618175 -34.173707 18.289558 114.153263 -57.376535 -110.184006 29.768278 -16.638751 13.334840 7.841927 -55.791372 6.455978 -85.912814 82.288133 -77.827521 2.060928 -5.163692 -16.331427 -0.014919 0.014190 -0.006775 -14.416347 -55.479012 8.782992 95.817125 82.645046 89.356000 -9.702637 -7.981789 2.419369 -0.011478 -0.005192 -0.005211
-6.130188 126.862270 35.039965 174.524278 -26.192286 -3.982342 -0.993854 14.907388 2.959100 -0.108278 1.373790 0.285118 -0.210373 2.346657 0.486005 -0.876709 13.251078 2.659217 -2.159400 21.185908 -2.177846 -1.805765 -3.199577 -1.851651 4.617287 2.733797 -10.159058 -10.736367 -30.399030 -32.502833 -114.901484 -61.887008 110.531967 -27.173377 -22.999860 -23.267210 -0.504914 3.260505 5.114677 27.619674 -34.162916 18.299234 114.103920 -57.412025 -110.187548 29.769339 -16.738672 13.381523 7.850004 -55.845250 6.434634 -87.509213 82.324154 -79.428633 2.055455 -5.862667 -16.367284 -0.017476 0.017663 -0.007937 -14.403236 -55.496411 8.797471 95.907512 82.694547 89.438458 -9.731012 -8.006947 2.435428 -0.000842 -0.004171 -0.000382
-6.132194 126.862982 35.033076 174.533949 -26.191451 -3.950195 -0.995669 14.895996 2.924398 -0.113183 1.367877 0.279996 -0.206794 2.331814 0.484354 -0.889333 13.220473 2.643796 -2.136677 21.128710 -2.187293 -1.786586 -3.213929 -1.852190 4.604400 2.771642 -10.141831 -10.825923 -30.376397 -32.494345 -115.127513 -61.901128 110.747521 -27.192190 -22.951570 -23.243121 -0.497727 3.279559 5.117731 27.650561 -34.173641 18.268529 114.127623 -57.424691 -110.202301 29.758409 -16.753484 13.384654 7.894254 -55.863580 6.397554 -89.004999 82.337462 -80.933982 2.083303 -6.514133 -16.391876 -0.033158 0.035017 -0.015063 -14.351541 -55.493492 8.759837 96.462753 82.705816 89.949616 -9.730077 -8.070571 2.500366 -0.037545 -0.013093 -0.017042
-6.130870 126.860407 35.034007 174.539183 -26.147989 -3.940051 -0.996137 14.845784 2.909347 -0.112384 1.356275 0.277568 -0.203109 2.308407 0.476113 -0.900335 13.204075 2.639172 -2.115009 21.094402 -2.192904 -1.761837 -3.253930 -1.862814 4.591535 2.806965 -10.127339 -10.864817 -30.356999 -32.484382 -115.388667 -61.950210 110.949223 -27.207142 -22.886174 -23.220240 -0.489496 3.298523 5.121918 27.674385 -34.174220 18.246913 114.241124 -57.422963 -110.224432 29.764296 -16.701673 13.346614 7.901603 -55.967283 6.455461 -90.655195 82.277334 -82.616025 2.058688 -7.053490 -16.406816 -0.006616 -0.005486 -0.003004 -14.346338 -55.522238 8.789820 96.696827 82.733357 90.159215 -9.749548 -8.106980 2.530132 -0.040306 -0.013885 -0.018296
-6.125196 126.857604 35.036780 174.540328 -26.100039 -3.954353 -0.985479 14.785464 2.921114 -0.120995 1.356577 0.279417 -0.200661 2.306493 0.475615 -0.904462 13.189985 2.634342 -2.094662 21.033577 -2.208722 -1.732889 -3.295702 -1.877946 4.566653 2.788496 -10.137509 -10.959526 -30.326876 -32.461715 -115.569807 -61.941193 111.140884 -27.187900 -22.836462 -23.206223 -0.480991 3.293854 5.117768 27.711208 -34.174142 18.219319 114.308241 -57.424117 -110.247121 29.769724 -16.684815 13.314676 7.881405 -56.036133 6.500340 -91.876641 82.254425 -83.849272 2.089678 -7.567452 -16.426573 -0.012297 0.003839 -0.005583 -14.369956 -55.542900 8.896540 96.911392 82.794871 90.341512 -9.797423 -8.149005 2.554909 -0.007790 -0.002676 -0.003537
-6.122863 126.856495 35.035517 174.539541 -26.078110 -3.948133 -0.991235 14.760542 2.913119 -0.120869 1.350281 0.277677 -0.199783 2.274070 0.466074 -0.900518 13.205488 2.637777 -2.074080 20.977559 -2.225490 -1.699590 -3.337613 -1.896884 4.546228 2.773433 -10.150041 -11.055487 -30.308043 -32.436331 -115.747007 -61.930741 111.325812 -27.161103 -22.799234 -23.205870 -0.473531 3.292442 5.112694 27.759789 -34.172155 18.190331 114.344820 -57.419901 -110.271742 29.772612 -16.690088 13.286623 7.887865 -56.074766 6.517301 -92.949025 82.220483 -84.931243 2.123397 -8.015904 -16.446459 -0.019690 0.009494 -0.008941 -14.363370 -55.552163 8.926735 97.130371 82.817253 90.534253 -9.784911 -8.174516 2.574540 -0.005707 -0.004380 -0.002591
-6.117802 126.854049 35.038156 174.518854 -26.039668 -3.950841 -0.977321 14.718771 2.924096 -0.119221 1.346379 0.276188 -0.201224 2.263687 0.462926 -0.906086 13.177257 2.628554 -2.042921 20.948132 -2.241065 -1.690423 -3.321489 -1.891166 4.516797 2.746585 -10.176982 -11.065836 -30.248461 -32.402277 -115.961966 -61.953451 111.489565 -27.136844 -22.787384 -23.216773 -0.457697 3.312458 5.111819 27.795577 -34.164758 18.174790 114.388201 -57.413802 -110.293785 29.772384 -16.701233 13.270533 7.872033 -56.149157 6.612478 -93.692948 82.149150 -85.695837 2.118579 -8.358610 -16.468456 -0.009735 -0.003277 -0.004420 -14.372584 -55.574050 8.991582 97.293435 82.840738 90.676507 -9.790628 -8.200798 2.597777 -0.007443 -0.004135 -0.003379
-6.113524 126.849128 35.046273 174.484017 -25.971858 -3.946306 -0.953148 14.648026 2.934811 -0.114860 1.345593 0.275712 -0.205786 2.252671 0.458764 -0.906720 13.149972 2.616488 -2.014240 20.921693 -2.253772 -1.639495 -3.391744 -1.924357 4.508523 2.755803 -10.180319 -11.099736 -30.230679 -32.382619 -116.160164 -61.971649 111.636904 -27.120297 -22.802817 -23.231073 -0.446821 3.331058 5.116296 27.850359 -34.147069 18.153117 114.440512 -57.406653 -110.340916 29.765072 -16.715998 13.283939 7.860876 -56.245331 6.702925 -94.341870 82.083666 -86.370598 2.116809 -8.667113 -16.490358 -0.002600 -0.013943 -0.001180 -14.383655 -55.631113 9.052993 97.397761 82.852856 90.768761 -9.753694 -8.212115 2.606190 -0.015162 -0.008774 -0.006883
-6.115625 126.845860 35.049694 174.488241 -25.928676 -3.921502 -0.972314 14.606095 2.905967 -0.115288 1.338318 0.275164 -0.202895 2.253539 0.457393 -0.929526 13.102767 2.584551 -1.963413 20.915751 -2.252598 -1.584252 -3.461810 -1.959255 4.521146 2.780823 -10.167989 -11.245204 -30.273921 -32.346644 -116.206315 -61.941220 111.744308 -27.111847 -22.844266 -23.245791 -0.419871 3.374988 5.139123 27.923600 -34.125890 18.120695 114.508537 -57.402754 -110.411002 29.781386 -16.695358 13.283968 7.854787 -56.307066 6.739274 -95.146774 82.008485 -87.213555 2.127165 -8.987950 -16.504303 0.008419 -0.011297 0.003822 -14.365544 -55.670581 9.037361 97.402636 82.866852 90.771624 -9.810919 -8.212334 2.617425 -0.019695 -0.012411 -0.008941
-6.117449 126.848765 35.040514 174.518306 -25.963460 -3.903355 -1.010312 14.645884 2.871240 -0.115850 1.332469 0.272727 -0.200279 2.251889 0.457496 -0.941910 13.090528 2.572045 -1.927111 20.879094 -2.266152 -1.542074 -3.504391 -1.981679 4.530032 2.778029 -10.170439 -11.324363 -30.300049 -32.323289 -116.300579 -61.924960 111.843410 -27.107882 -22.913257 -23.263883 -0.402903 3.383502 5.144676 27.954292 -34.106292 18.116086 114.553892 -57.397376 -110.454857 29.731444 -16.755794 13.387829 7.846361 -56.275886 6.736686 -96.108025 81.953021 -88.193729 2.175581 -9.325526 -16.512379 -0.005728 0.004083 -0.002601 -14.321983 -55.620149 8.988135 97.411219 82.898866 90.760084 -9.840180 -8.237235 2.637861 -0.004788 -0.003561 -0.002174
-6.116968 126.848639 35.038444 174.525179 -25.958960 -3.892428 -1.022066 14.647400 2.856330 -0.122193 1.331250 0.269867 -0.199842 2.242940 0.456012 -0.943507 13.084420 2.562799 -1.893681 20.843513 -2.278581 -1.503229 -3.545602 -2.002272 4.538900 2.781966 -10.163955 -11.343217 -30.305083 -32.316303 -116.462298 -61.918314 111.954454 -27.102152 -23.002386 -23.290021 -0.390060 3.382500 5.144667 27.951575 -34.095068 18.131143 114.663118 -57.425973 -110.499191 29.718019 -16.779592 13.491111 7.836243 -56.287359 6.754168 -96.771541 81.905273 -88.869654 2.209119 -9.600037 -16.528954 -0.011193 0.010351 -0.005083 -14.308162 -55.619475 8.976796 97.496201 82.911424 90.827711 -9.840975 -8.250174 2.657651 -0.007279 -0.005087 -0.003305
-6.115524 126.847647 35.038506 174.524043 -25.942677 -3.885612 -1.021585 14.636311 2.850120 -0.123658 1.328098 0.269622 -0.204939 2.240674 0.454564 -0.941208 13.077804 2.550999 -1.863771 20.810023 -2.288525 -1.468688 -3.584438 -2.019384 4.531133 2.766641 -10.169978 -11.396972 -30.323636 -32.296655 -116.545143 -61.890471 112.029875 -27.092839 -23.094524 -23.322148 -0.387069 3.381877 5.145034 27.979634 -34.061626 18.137963 114.775815 -57.425981 -110.587447 29.713097 -16.799268 13.569713 7.789570 -56.315639 6.818695 -97.262045 81.849036 -89.389499 2.236210 -9.832555 -16.549347 -0.008930 0.009127 -0.004055 -14.304270 -55.632035 8.979531 97.582556 82.916677 90.897872 -9.806542 -8.263067 2.669352 -0.007372 -0.005992 -0.003347
-6.115187 126.846042 35.039594 174.527472 -25.918500 -3.876648 -1.027422 14.614155 2.839783 -0.122309 1.328909 0.268639 -0.198324 2.247960 0.446682 -0.948134 13.065273 2.546177 -1.836035 20.778473 -2.296422 -1.436936 -3.621046 -2.033844 4.510042 2.752624 -10.175818 -11.427601 -30.338895 -32.272258 -116.656531 -61.873174 112.115135 -27.085318 -23.177374 -23.353186 -0.388543 3.377979 5.147864 28.081953 -34.013881 18.116144 114.811752 -57.380171 -110.698909 29.684310 -16.851396 13.647143 7.700946 -56.355054 6.902386 -97.718666 81.799596 -89.895666 2.267441 -10.039700 -16.573876 -0.006656 0.002300 -0.003022 -14.302286 -55.655807 8.973682 97.588133 82.918391 90.901517 -9.807849 -8.266453 2.671061 -0.007093 -0.007760 -0.003220
